<?xml version="1.0" encoding="UTF-8"?>
<svg version="1.1" xmlns="http://www.w3.org/2000/svg" width="512" height="512">
<path d="M0 0 C0.70310303 -0.00686325 1.40620605 -0.0137265 2.13061523 -0.02079773 C4.44478804 -0.0390341 6.75828082 -0.03523295 9.07250977 -0.02954102 C10.68767008 -0.03410446 12.30282845 -0.03941052 13.91798401 -0.04542542 C17.29973244 -0.05435035 20.68124465 -0.05194065 24.06298828 -0.04199219 C28.3885116 -0.0305049 32.71321825 -0.05071279 37.0386343 -0.07990932 C40.37332811 -0.09828973 43.7078269 -0.09797522 47.04255867 -0.0922718 C48.63690397 -0.0921188 50.23126267 -0.09814555 51.82555962 -0.11056328 C54.05870079 -0.12550668 56.29034202 -0.11477378 58.5234375 -0.09765625 C60.4260862 -0.097407 60.4260862 -0.097407 62.36717224 -0.09715271 C67.47535495 0.64296541 70.47080925 2.7130584 73.67616272 6.71144104 C75.13168097 10.11864316 75.21445385 12.78111492 75.23046875 16.48583984 C75.24076363 17.52586403 75.24076363 17.52586403 75.25126648 18.5868988 C75.26950048 20.86860901 75.26570206 23.14962936 75.26000977 25.43139648 C75.26457333 27.02413658 75.26987942 28.61687471 75.27589417 30.20960999 C75.28481864 33.54428111 75.28240995 36.87871266 75.27246094 40.21337891 C75.26097377 44.47837244 75.28118153 48.7425377 75.31037807 53.00742245 C75.32875984 56.29579385 75.3284437 59.58396749 75.32274055 62.8723774 C75.32258757 64.44439417 75.32861298 66.01642454 75.34103203 67.58839226 C75.35597806 69.7904075 75.34524077 71.99090213 75.328125 74.19287109 C75.32787575 76.06887245 75.32787575 76.06887245 75.32762146 77.98277283 C74.58327545 83.06375527 72.49805625 86.060621 68.52476501 89.25379944 C65.08873849 90.71851021 62.38773772 90.79218637 58.65283203 90.80810547 C57.949729 90.81496872 57.24662598 90.82183197 56.5222168 90.8289032 C54.20804399 90.84713956 51.89455121 90.84333842 49.58032227 90.83764648 C47.96516195 90.84220993 46.35000358 90.84751599 44.73484802 90.85353088 C41.35309959 90.86245582 37.97158738 90.86004612 34.58984375 90.85009766 C30.26432043 90.83861037 25.93961378 90.85881826 21.61419773 90.88801479 C18.27950392 90.9063952 14.94500514 90.90608069 11.61027336 90.90037727 C10.01592806 90.90022427 8.42156936 90.90625101 6.82727242 90.91866875 C4.59413125 90.93361215 2.36249001 90.92287925 0.12939453 90.90576172 C-1.13903793 90.90559555 -2.4074704 90.90542938 -3.71434021 90.90525818 C-8.64111384 90.19142419 -11.74491933 87.99445301 -15.03686523 84.32983398 C-16.79836281 79.79594503 -16.48612442 75.40247437 -16.36108398 70.59155273 C-16.29920898 67.22967773 -16.23733398 63.86780273 -16.17358398 60.40405273 C-26.07358398 60.40405273 -35.97358398 60.40405273 -46.17358398 60.40405273 C-46.17358398 90.10405273 -46.17358398 119.80405273 -46.17358398 150.40405273 C-36.27358398 150.40405273 -26.37358398 150.40405273 -16.17358398 150.40405273 C-16.33105671 143.76250651 -16.33105671 143.76250651 -16.53393555 137.12231445 C-16.60231545 131.38832832 -16.21820277 127.8201161 -12.17358398 123.40405273 C-8.07881841 120.36080782 -5.05213942 120.02153348 0 120 C0.70310303 119.99313675 1.40620605 119.9862735 2.13061523 119.97920227 C4.44478804 119.9609659 6.75828082 119.96476705 9.07250977 119.97045898 C10.68767008 119.96589554 12.30282845 119.96058948 13.91798401 119.95457458 C17.29973244 119.94564965 20.68124465 119.94805935 24.06298828 119.95800781 C28.3885116 119.9694951 32.71321825 119.94928721 37.0386343 119.92009068 C40.37332811 119.90171027 43.7078269 119.90202478 47.04255867 119.9077282 C48.63690397 119.9078812 50.23126267 119.90185445 51.82555962 119.88943672 C54.05870079 119.87449332 56.29034202 119.88522622 58.5234375 119.90234375 C60.4260862 119.902593 60.4260862 119.902593 62.36717224 119.90284729 C67.47535495 120.64296541 70.47080925 122.7130584 73.67616272 126.71144104 C75.13168097 130.11864316 75.21445385 132.78111492 75.23046875 136.48583984 C75.24076363 137.52586403 75.24076363 137.52586403 75.25126648 138.5868988 C75.26950048 140.86860901 75.26570206 143.14962936 75.26000977 145.43139648 C75.26457333 147.02413658 75.26987942 148.61687471 75.27589417 150.20960999 C75.28481864 153.54428111 75.28240995 156.87871266 75.27246094 160.21337891 C75.26097377 164.47837244 75.28118153 168.7425377 75.31037807 173.00742245 C75.32875984 176.29579385 75.3284437 179.58396749 75.32274055 182.8723774 C75.32258757 184.44439417 75.32861298 186.01642454 75.34103203 187.58839226 C75.35597806 189.7904075 75.34524077 191.99090213 75.328125 194.19287109 C75.32787575 196.06887245 75.32787575 196.06887245 75.32762146 197.98277283 C74.58327545 203.06375527 72.49805625 206.060621 68.52476501 209.25379944 C65.08873849 210.71851021 62.38773772 210.79218637 58.65283203 210.80810547 C57.949729 210.81496872 57.24662598 210.82183197 56.5222168 210.8289032 C54.20804399 210.84713956 51.89455121 210.84333842 49.58032227 210.83764648 C47.96516195 210.84220993 46.35000358 210.84751599 44.73484802 210.85353088 C41.35309959 210.86245582 37.97158738 210.86004612 34.58984375 210.85009766 C30.26432043 210.83861037 25.93961378 210.85881826 21.61419773 210.88801479 C18.27950392 210.9063952 14.94500514 210.90608069 11.61027336 210.90037727 C10.01592806 210.90022427 8.42156936 210.90625101 6.82727242 210.91866875 C4.59413125 210.93361215 2.36249001 210.92287925 0.12939453 210.90576172 C-1.13903793 210.90559555 -2.4074704 210.90542938 -3.71434021 210.90525818 C-8.64111384 210.19142419 -11.74491933 207.99445301 -15.03686523 204.32983398 C-16.79783814 199.79729547 -16.48711574 195.40338055 -16.36108398 190.59155273 C-16.34754883 189.61250977 -16.33401367 188.6334668 -16.32006836 187.62475586 C-16.2848371 185.21728648 -16.23557663 182.81095709 -16.17358398 180.40405273 C-16.7991922 180.41293518 -17.42480042 180.42181763 -18.06936646 180.43096924 C-24.59066618 180.51957968 -31.1117944 180.57984403 -37.63354492 180.6237793 C-40.06623279 180.64387344 -42.49887249 180.67115362 -44.93139648 180.70581055 C-48.43151754 180.75442334 -51.930999 180.77704412 -55.43139648 180.79467773 C-56.51599152 180.81532288 -57.60058655 180.83596802 -58.7180481 180.85723877 C-64.68132206 180.85900404 -68.60323019 180.66607818 -73.17358398 176.40405273 C-77.4632068 171.73200201 -76.55133372 165.72642098 -76.46655273 159.75952148 C-76.46230789 158.63459793 -76.45806305 157.50967438 -76.45368958 156.35066223 C-76.43692089 152.76404712 -76.39927087 149.17799752 -76.36108398 145.59155273 C-76.34603486 143.15731607 -76.33234685 140.72307058 -76.32006836 138.28881836 C-76.28957749 132.3268376 -76.23084996 126.36607687 -76.17358398 120.40405273 C-86.07358398 120.40405273 -95.97358398 120.40405273 -106.17358398 120.40405273 C-106.01611126 127.04559896 -106.01611126 127.04559896 -105.81323242 133.68579102 C-105.74485251 139.41977715 -106.1289652 142.98798937 -110.17358398 147.40405273 C-114.2451099 150.4221379 -117.23475901 150.78640221 -122.25537109 150.80810547 C-123.29539528 150.81840034 -123.29539528 150.81840034 -124.35643005 150.8289032 C-126.63814026 150.84713719 -128.91916061 150.84333878 -131.20092773 150.83764648 C-132.79366783 150.84221005 -134.38640596 150.84751614 -135.97914124 150.85353088 C-139.31381236 150.86245536 -142.64824391 150.86004667 -145.98291016 150.85009766 C-150.24790369 150.83861049 -154.51206895 150.85881825 -158.7769537 150.88801479 C-162.0653251 150.90639656 -165.35349874 150.90608042 -168.64190865 150.90037727 C-170.21392542 150.90022429 -171.78595579 150.9062497 -173.35792351 150.91866875 C-175.55993875 150.93361478 -177.76043338 150.92287749 -179.96240234 150.90576172 C-181.21306992 150.90559555 -182.46373749 150.90542938 -183.75230408 150.90525818 C-188.65344422 150.18725843 -191.76146635 147.97603275 -195.03686523 144.32983398 C-196.79836281 139.79594503 -196.48612442 135.40247437 -196.36108398 130.59155273 C-196.29920898 127.22967773 -196.23733398 123.86780273 -196.17358398 120.40405273 C-206.07358398 120.40405273 -215.97358398 120.40405273 -226.17358398 120.40405273 C-226.17358398 189.70405273 -226.17358398 259.00405273 -226.17358398 330.40405273 C-216.27358398 330.40405273 -206.37358398 330.40405273 -196.17358398 330.40405273 C-196.33105671 323.76250651 -196.33105671 323.76250651 -196.53393555 317.12231445 C-196.60231545 311.38832832 -196.21820277 307.8201161 -192.17358398 303.40405273 C-188.10205807 300.38596757 -185.11240896 300.02170325 -180.09179688 300 C-179.39844742 299.99313675 -178.70509796 299.9862735 -177.99073792 299.97920227 C-175.70902771 299.96096827 -173.42800735 299.96476669 -171.14624023 299.97045898 C-169.55350014 299.96589542 -167.96076201 299.96058933 -166.36802673 299.95457458 C-163.03335561 299.94565011 -159.69892406 299.9480588 -156.36425781 299.95800781 C-152.09926428 299.96949498 -147.83509902 299.94928722 -143.57021427 299.92009068 C-140.28184287 299.90170891 -136.99366923 299.90202505 -133.70525932 299.9077282 C-132.13324255 299.90788118 -130.56121218 299.90185577 -128.98924446 299.88943672 C-126.78722922 299.87449069 -124.58673459 299.88522798 -122.38476562 299.90234375 C-120.50876427 299.902593 -120.50876427 299.902593 -118.59486389 299.90284729 C-113.69372375 300.62084704 -110.58570162 302.83207272 -107.31030273 306.47827148 C-105.54880516 311.01216044 -105.86104355 315.4056311 -105.98608398 320.21655273 C-106.04795898 323.57842773 -106.10983398 326.94030273 -106.17358398 330.40405273 C-96.27358398 330.40405273 -86.37358398 330.40405273 -76.17358398 330.40405273 C-76.21999023 326.79209961 -76.26639648 323.18014648 -76.31420898 319.45874023 C-76.34541927 315.95387171 -76.3696988 312.44901877 -76.39331055 308.9440918 C-76.41340469 306.51140392 -76.44068487 304.07876422 -76.4753418 301.64624023 C-76.52395459 298.14611918 -76.54657537 294.64663772 -76.56420898 291.14624023 C-76.58485413 290.0616452 -76.60549927 288.97705017 -76.62677002 287.85958862 C-76.62853529 281.89631466 -76.43560943 277.97440653 -72.17358398 273.40405273 C-67.50153326 269.11442992 -61.49595223 270.026303 -55.52905273 270.11108398 C-54.40412918 270.11532883 -53.27920563 270.11957367 -52.12019348 270.12394714 C-48.53357837 270.14071583 -44.94752877 270.17836585 -41.36108398 270.21655273 C-38.92684732 270.23160186 -36.49260183 270.24528987 -34.05834961 270.25756836 C-28.0965687 270.29061348 -22.13511675 270.34079545 -16.17358398 270.40405273 C-16.19453125 269.79932129 -16.21547852 269.19458984 -16.23706055 268.5715332 C-16.32067344 265.80754502 -16.37238452 263.04382361 -16.42358398 260.27905273 C-16.45709961 259.32772461 -16.49061523 258.37639648 -16.52514648 257.39624023 C-16.60625727 251.55626361 -16.29855074 247.90784297 -12.17358398 243.40405273 C-8.07881841 240.36080782 -5.05213942 240.02153348 0 240 C0.70310303 239.99313675 1.40620605 239.9862735 2.13061523 239.97920227 C4.44478804 239.9609659 6.75828082 239.96476705 9.07250977 239.97045898 C10.68767008 239.96589554 12.30282845 239.96058948 13.91798401 239.95457458 C17.29973244 239.94564965 20.68124465 239.94805935 24.06298828 239.95800781 C28.3885116 239.9694951 32.71321825 239.94928721 37.0386343 239.92009068 C40.37332811 239.90171027 43.7078269 239.90202478 47.04255867 239.9077282 C48.63690397 239.9078812 50.23126267 239.90185445 51.82555962 239.88943672 C54.05870079 239.87449332 56.29034202 239.88522622 58.5234375 239.90234375 C60.4260862 239.902593 60.4260862 239.902593 62.36717224 239.90284729 C67.47535495 240.64296541 70.47080925 242.7130584 73.67616272 246.71144104 C75.13168097 250.11864316 75.21445385 252.78111492 75.23046875 256.48583984 C75.24076363 257.52586403 75.24076363 257.52586403 75.25126648 258.5868988 C75.26950048 260.86860901 75.26570206 263.14962936 75.26000977 265.43139648 C75.26457333 267.02413658 75.26987942 268.61687471 75.27589417 270.20960999 C75.28481864 273.54428111 75.28240995 276.87871266 75.27246094 280.21337891 C75.26097377 284.47837244 75.28118153 288.7425377 75.31037807 293.00742245 C75.32875984 296.29579385 75.3284437 299.58396749 75.32274055 302.8723774 C75.32258757 304.44439417 75.32861298 306.01642454 75.34103203 307.58839226 C75.35597806 309.7904075 75.34524077 311.99090213 75.328125 314.19287109 C75.32787575 316.06887245 75.32787575 316.06887245 75.32762146 317.98277283 C74.58327545 323.06375527 72.49805625 326.060621 68.52476501 329.25379944 C65.08873849 330.71851021 62.38773772 330.79218637 58.65283203 330.80810547 C57.59817749 330.81840034 57.59817749 330.81840034 56.5222168 330.8289032 C54.20804399 330.84713956 51.89455121 330.84333842 49.58032227 330.83764648 C47.96516195 330.84220993 46.35000358 330.84751599 44.73484802 330.85353088 C41.35309959 330.86245582 37.97158738 330.86004612 34.58984375 330.85009766 C30.26432043 330.83861037 25.93961378 330.85881826 21.61419773 330.88801479 C18.27950392 330.9063952 14.94500514 330.90608069 11.61027336 330.90037727 C10.01592806 330.90022427 8.42156936 330.90625101 6.82727242 330.91866875 C4.59413125 330.93361215 2.36249001 330.92287925 0.12939453 330.90576172 C-1.13903793 330.90559555 -2.4074704 330.90542938 -3.71434021 330.90525818 C-8.64111384 330.19142419 -11.74491933 327.99445301 -15.03686523 324.32983398 C-16.79836281 319.79594503 -16.48612442 315.40247437 -16.36108398 310.59155273 C-16.29920898 307.22967773 -16.23733398 303.86780273 -16.17358398 300.40405273 C-26.07358398 300.40405273 -35.97358398 300.40405273 -46.17358398 300.40405273 C-46.17358398 330.10405273 -46.17358398 359.80405273 -46.17358398 390.40405273 C-36.27358398 390.40405273 -26.37358398 390.40405273 -16.17358398 390.40405273 C-16.33105671 383.76250651 -16.33105671 383.76250651 -16.53393555 377.12231445 C-16.60231545 371.38832832 -16.21820277 367.8201161 -12.17358398 363.40405273 C-8.07881841 360.36080782 -5.05213942 360.02153348 0 360 C1.05465454 359.98970512 1.05465454 359.98970512 2.13061523 359.97920227 C4.44478804 359.9609659 6.75828082 359.96476705 9.07250977 359.97045898 C10.68767008 359.96589554 12.30282845 359.96058948 13.91798401 359.95457458 C17.29973244 359.94564965 20.68124465 359.94805935 24.06298828 359.95800781 C28.3885116 359.9694951 32.71321825 359.94928721 37.0386343 359.92009068 C40.37332811 359.90171027 43.7078269 359.90202478 47.04255867 359.9077282 C48.63690397 359.9078812 50.23126267 359.90185445 51.82555962 359.88943672 C54.05870079 359.87449332 56.29034202 359.88522622 58.5234375 359.90234375 C60.4260862 359.902593 60.4260862 359.902593 62.36717224 359.90284729 C67.47535495 360.64296541 70.47080925 362.7130584 73.67616272 366.71144104 C75.13168097 370.11864316 75.21445385 372.78111492 75.23046875 376.48583984 C75.24076363 377.52586403 75.24076363 377.52586403 75.25126648 378.5868988 C75.26950048 380.86860901 75.26570206 383.14962936 75.26000977 385.43139648 C75.26457333 387.02413658 75.26987942 388.61687471 75.27589417 390.20960999 C75.28481864 393.54428111 75.28240995 396.87871266 75.27246094 400.21337891 C75.26097377 404.47837244 75.28118153 408.7425377 75.31037807 413.00742245 C75.32875984 416.29579385 75.3284437 419.58396749 75.32274055 422.8723774 C75.32258757 424.44439417 75.32861298 426.01642454 75.34103203 427.58839226 C75.35597806 429.7904075 75.34524077 431.99090213 75.328125 434.19287109 C75.32787575 436.06887245 75.32787575 436.06887245 75.32762146 437.98277283 C74.58327545 443.06375527 72.49805625 446.060621 68.52476501 449.25379944 C65.08873849 450.71851021 62.38773772 450.79218637 58.65283203 450.80810547 C57.59817749 450.81840034 57.59817749 450.81840034 56.5222168 450.8289032 C54.20804399 450.84713956 51.89455121 450.84333842 49.58032227 450.83764648 C47.96516195 450.84220993 46.35000358 450.84751599 44.73484802 450.85353088 C41.35309959 450.86245582 37.97158738 450.86004612 34.58984375 450.85009766 C30.26432043 450.83861037 25.93961378 450.85881826 21.61419773 450.88801479 C18.27950392 450.9063952 14.94500514 450.90608069 11.61027336 450.90037727 C10.01592806 450.90022427 8.42156936 450.90625101 6.82727242 450.91866875 C4.59413125 450.93361215 2.36249001 450.92287925 0.12939453 450.90576172 C-1.13903793 450.90559555 -2.4074704 450.90542938 -3.71434021 450.90525818 C-8.64111384 450.19142419 -11.74491933 447.99445301 -15.03686523 444.32983398 C-16.79783814 439.79729547 -16.48711574 435.40338055 -16.36108398 430.59155273 C-16.34078125 429.12298828 -16.34078125 429.12298828 -16.32006836 427.62475586 C-16.2848371 425.21728648 -16.23557663 422.81095709 -16.17358398 420.40405273 C-16.7991922 420.41293518 -17.42480042 420.42181763 -18.06936646 420.43096924 C-24.59066618 420.51957968 -31.1117944 420.57984403 -37.63354492 420.6237793 C-40.06623279 420.64387344 -42.49887249 420.67115362 -44.93139648 420.70581055 C-48.43151754 420.75442334 -51.930999 420.77704412 -55.43139648 420.79467773 C-56.51599152 420.81532288 -57.60058655 420.83596802 -58.7180481 420.85723877 C-64.68132206 420.85900404 -68.60323019 420.66607818 -73.17358398 416.40405273 C-77.4632068 411.73200201 -76.55133372 405.72642098 -76.46655273 399.75952148 C-76.46230789 398.63459793 -76.45806305 397.50967438 -76.45368958 396.35066223 C-76.43692089 392.76404712 -76.39927087 389.17799752 -76.36108398 385.59155273 C-76.34603486 383.15731607 -76.33234685 380.72307058 -76.32006836 378.28881836 C-76.28957749 372.3268376 -76.23084996 366.36607687 -76.17358398 360.40405273 C-86.07358398 360.40405273 -95.97358398 360.40405273 -106.17358398 360.40405273 C-106.01611126 367.04559896 -106.01611126 367.04559896 -105.81323242 373.68579102 C-105.74485251 379.41977715 -106.1289652 382.98798937 -110.17358398 387.40405273 C-114.2451099 390.4221379 -117.23475901 390.78640221 -122.25537109 390.80810547 C-122.94872055 390.81496872 -123.64207001 390.82183197 -124.35643005 390.8289032 C-126.63814026 390.84713719 -128.91916061 390.84333878 -131.20092773 390.83764648 C-132.79366783 390.84221005 -134.38640596 390.84751614 -135.97914124 390.85353088 C-139.31381236 390.86245536 -142.64824391 390.86004667 -145.98291016 390.85009766 C-150.24790369 390.83861049 -154.51206895 390.85881825 -158.7769537 390.88801479 C-162.0653251 390.90639656 -165.35349874 390.90608042 -168.64190865 390.90037727 C-170.21392542 390.90022429 -171.78595579 390.9062497 -173.35792351 390.91866875 C-175.55993875 390.93361478 -177.76043338 390.92287749 -179.96240234 390.90576172 C-181.21306992 390.90559555 -182.46373749 390.90542938 -183.75230408 390.90525818 C-188.65344422 390.18725843 -191.76146635 387.97603275 -195.03686523 384.32983398 C-196.79783814 379.79729547 -196.48711574 375.40338055 -196.36108398 370.59155273 C-196.34754883 369.61250977 -196.33401367 368.6334668 -196.32006836 367.62475586 C-196.2848371 365.21728648 -196.23557663 362.81095709 -196.17358398 360.40405273 C-196.7991922 360.41293518 -197.42480042 360.42181763 -198.06936646 360.43096924 C-204.59066618 360.51957968 -211.1117944 360.57984403 -217.63354492 360.6237793 C-220.06623279 360.64387344 -222.49887249 360.67115362 -224.93139648 360.70581055 C-228.43151754 360.75442334 -231.930999 360.77704412 -235.43139648 360.79467773 C-236.51599152 360.81532288 -237.60058655 360.83596802 -238.7180481 360.85723877 C-244.68132206 360.85900404 -248.60323019 360.66607818 -253.17358398 356.40405273 C-257.14290565 351.61117076 -256.57669443 346.56049022 -256.51416016 340.64697266 C-256.51459824 339.56359619 -256.51503632 338.48021973 -256.51548767 337.36401367 C-256.51339964 333.78733221 -256.49006717 330.21112095 -256.46655273 326.63452148 C-256.46095685 324.15302283 -256.45668672 321.67152086 -256.45368958 319.1900177 C-256.4422403 312.66170079 -256.41277207 306.13358441 -256.37957764 299.60534668 C-256.34725653 292.94258403 -256.33518459 286.27976306 -256.32006836 279.61694336 C-256.28790269 266.54587758 -256.23513375 253.47501321 -256.17358398 240.40405273 C-266.07358398 240.40405273 -275.97358398 240.40405273 -286.17358398 240.40405273 C-286.12717773 244.01600586 -286.08077148 247.62795898 -286.03295898 251.34936523 C-286.0017487 254.85423376 -285.97746916 258.3590867 -285.95385742 261.86401367 C-285.93376328 264.29670154 -285.9064831 266.72934124 -285.87182617 269.16186523 C-285.82321338 272.66198629 -285.8005926 276.16146775 -285.78295898 279.66186523 C-285.76231384 280.74646027 -285.7416687 281.8310553 -285.72039795 282.94851685 C-285.71863267 288.91179081 -285.91155853 292.83369894 -290.17358398 297.40405273 C-293.83084372 300.00315586 -296.31646931 300.78052357 -300.78367615 300.79173279 C-302.45960342 300.80658974 -302.45960342 300.80658974 -304.16938782 300.82174683 C-305.38563339 300.81724518 -306.60187897 300.81274353 -307.85498047 300.80810547 C-309.14329773 300.81496872 -310.43161499 300.82183197 -311.75897217 300.8289032 C-315.28589833 300.84682603 -318.81257557 300.84566793 -322.33953357 300.83996081 C-325.28683638 300.83686758 -328.23409147 300.84296292 -331.18138748 300.84899956 C-338.13593942 300.86304037 -345.09036851 300.86148732 -352.04492188 300.85009766 C-359.21310981 300.83861734 -366.38092356 300.85269138 -373.54906219 300.87949413 C-379.70974211 300.90166505 -385.87030469 300.90828538 -392.03102165 300.90241772 C-395.707763 300.89905016 -399.38426452 300.90144949 -403.06097221 300.91866875 C-407.16181944 300.93703665 -411.26194062 300.92293664 -415.36279297 300.90576172 C-416.57701431 300.91542969 -417.79123566 300.92509766 -419.04225159 300.93505859 C-429.52899811 300.84298854 -429.52899811 300.84298854 -434.17358398 296.40405273 C-436.75726758 292.75606825 -437.55000655 290.28420419 -437.56126404 285.83192444 C-437.57116867 284.72305374 -437.5810733 283.61418304 -437.59127808 282.47171021 C-437.58677643 281.26481537 -437.58227478 280.05792053 -437.57763672 278.81445312 C-437.58449997 277.53588943 -437.59136322 276.25732574 -437.59843445 274.9400177 C-437.61635647 271.43994963 -437.61519934 267.9401324 -437.60949206 264.44003224 C-437.60639871 261.51509725 -437.61249431 258.59021034 -437.61853081 255.66528219 C-437.63257136 248.76346765 -437.6310188 241.8617769 -437.61962891 234.95996094 C-437.60814863 227.84630349 -437.6222226 220.7330231 -437.64902538 213.61941534 C-437.67119684 207.50544397 -437.67781651 201.39159082 -437.67194897 195.27758211 C-437.66858154 191.62878574 -437.6709799 187.98023104 -437.6882 184.33146858 C-437.70656898 180.26175256 -437.69246735 176.19276807 -437.67529297 172.12304688 C-437.68496094 170.91817627 -437.69462891 169.71330566 -437.70458984 168.47192383 C-437.65043957 162.35055847 -437.61187453 158.05912621 -433.17358398 153.40405273 C-429.51361253 150.8086232 -427.0315958 150.02758415 -422.56349182 150.01637268 C-421.44620697 150.00646805 -420.32892212 149.99656342 -419.17778015 149.98635864 C-417.96153458 149.99086029 -416.745289 149.99536194 -415.4921875 150 C-414.20387024 149.99313675 -412.91555298 149.9862735 -411.5881958 149.97920227 C-408.06126964 149.96127944 -404.5345924 149.96243753 -401.0076344 149.96814466 C-398.06033159 149.97123789 -395.1130765 149.96514255 -392.16578048 149.95910591 C-385.21122854 149.9450651 -378.25679945 149.94661815 -371.30224609 149.95800781 C-364.13405816 149.96948813 -356.9662444 149.95541409 -349.79810578 149.92861134 C-343.63742586 149.90644042 -337.47686328 149.89982008 -331.31614631 149.90568775 C-327.63940497 149.90905531 -323.96290345 149.90665598 -320.28619576 149.88943672 C-316.18534853 149.87106882 -312.08522735 149.88516883 -307.984375 149.90234375 C-306.77015366 149.89267578 -305.55593231 149.88300781 -304.30491638 149.87304688 C-297.96978832 149.92866714 -293.95689094 150.07593856 -289.17358398 154.40405273 C-284.88396117 159.07610346 -285.79583425 165.08168449 -285.88061523 171.04858398 C-285.88486008 172.17350754 -285.88910492 173.29843109 -285.89347839 174.45744324 C-285.91024708 178.04405835 -285.9478971 181.63010795 -285.98608398 185.21655273 C-286.00113311 187.6507894 -286.01482112 190.08503489 -286.02709961 192.51928711 C-286.05759048 198.48126787 -286.11631801 204.4420286 -286.17358398 210.40405273 C-276.27358398 210.40405273 -266.37358398 210.40405273 -256.17358398 210.40405273 C-256.19453125 207.0729541 -256.21547852 203.74185547 -256.23706055 200.30981445 C-256.30333045 189.30563387 -256.34751947 178.30144449 -256.38083267 167.29711723 C-256.40170998 160.6249595 -256.43003083 153.95304588 -256.4753418 147.28100586 C-256.51879338 140.84248977 -256.54272004 134.40417034 -256.55309296 127.96551895 C-256.56048546 125.50870798 -256.57492117 123.0519078 -256.59650421 120.59518051 C-256.62552795 117.15476954 -256.62954026 113.71517185 -256.62768555 110.2746582 C-256.64206665 109.25829788 -256.65644775 108.24193756 -256.67126465 107.19477844 C-256.63663658 101.26110704 -256.08410997 97.94574635 -252.17358398 93.40405273 C-247.50153326 89.11442992 -241.49595223 90.026303 -235.52905273 90.11108398 C-234.40412918 90.11532883 -233.27920563 90.11957367 -232.12019348 90.12394714 C-228.53357837 90.14071583 -224.94752877 90.17836585 -221.36108398 90.21655273 C-218.92684732 90.23160186 -216.49260183 90.24528987 -214.05834961 90.25756836 C-208.0965687 90.29061348 -202.13511675 90.34079545 -196.17358398 90.40405273 C-196.19453125 89.79932129 -196.21547852 89.19458984 -196.23706055 88.5715332 C-196.32067344 85.80754502 -196.37238452 83.04382361 -196.42358398 80.27905273 C-196.45709961 79.32772461 -196.49061523 78.37639648 -196.52514648 77.39624023 C-196.60625727 71.55626361 -196.29855074 67.90784297 -192.17358398 63.40405273 C-188.10205807 60.38596757 -185.11240896 60.02170325 -180.09179688 60 C-179.39844742 59.99313675 -178.70509796 59.9862735 -177.99073792 59.97920227 C-175.70902771 59.96096827 -173.42800735 59.96476669 -171.14624023 59.97045898 C-169.55350014 59.96589542 -167.96076201 59.96058933 -166.36802673 59.95457458 C-163.03335561 59.94565011 -159.69892406 59.9480588 -156.36425781 59.95800781 C-152.09926428 59.96949498 -147.83509902 59.94928722 -143.57021427 59.92009068 C-140.28184287 59.90170891 -136.99366923 59.90202505 -133.70525932 59.9077282 C-132.13324255 59.90788118 -130.56121218 59.90185577 -128.98924446 59.88943672 C-126.78722922 59.87449069 -124.58673459 59.88522798 -122.38476562 59.90234375 C-120.50876427 59.902593 -120.50876427 59.902593 -118.59486389 59.90284729 C-113.69372375 60.62084704 -110.58570162 62.83207272 -107.31030273 66.47827148 C-105.54880516 71.01216044 -105.86104355 75.4056311 -105.98608398 80.21655273 C-106.04795898 83.57842773 -106.10983398 86.94030273 -106.17358398 90.40405273 C-96.27358398 90.40405273 -86.37358398 90.40405273 -76.17358398 90.40405273 C-76.21999023 86.79209961 -76.26639648 83.18014648 -76.31420898 79.45874023 C-76.34541927 75.95387171 -76.3696988 72.44901877 -76.39331055 68.9440918 C-76.41340469 66.51140392 -76.44068487 64.07876422 -76.4753418 61.64624023 C-76.52395459 58.14611918 -76.54657537 54.64663772 -76.56420898 51.14624023 C-76.58485413 50.0616452 -76.60549927 48.97705017 -76.62677002 47.85958862 C-76.62853529 41.89631466 -76.43560943 37.97440653 -72.17358398 33.40405273 C-67.50153326 29.11442992 -61.49595223 30.026303 -55.52905273 30.11108398 C-54.40412918 30.11532883 -53.27920563 30.11957367 -52.12019348 30.12394714 C-48.53357837 30.14071583 -44.94752877 30.17836585 -41.36108398 30.21655273 C-38.92684732 30.23160186 -36.49260183 30.24528987 -34.05834961 30.25756836 C-28.0965687 30.29061348 -22.13511675 30.34079545 -16.17358398 30.40405273 C-16.19453125 29.79932129 -16.21547852 29.19458984 -16.23706055 28.5715332 C-16.32067344 25.80754502 -16.37238452 23.04382361 -16.42358398 20.27905273 C-16.45709961 19.32772461 -16.49061523 18.37639648 -16.52514648 17.39624023 C-16.60625727 11.55626361 -16.29855074 7.90784297 -12.17358398 3.40405273 C-8.07881841 0.36080782 -5.05213942 0.02153348 0 0 Z " fill="#7EE881" transform="translate(437.173583984375,30.595947265625)"/>
<path d="M0 0 C0.70310303 -0.00686325 1.40620605 -0.0137265 2.13061523 -0.02079773 C4.44478804 -0.0390341 6.75828082 -0.03523295 9.07250977 -0.02954102 C10.68767008 -0.03410446 12.30282845 -0.03941052 13.91798401 -0.04542542 C17.29973244 -0.05435035 20.68124465 -0.05194065 24.06298828 -0.04199219 C28.3885116 -0.0305049 32.71321825 -0.05071279 37.0386343 -0.07990932 C40.37332811 -0.09828973 43.7078269 -0.09797522 47.04255867 -0.0922718 C48.63690397 -0.0921188 50.23126267 -0.09814555 51.82555962 -0.11056328 C54.05870079 -0.12550668 56.29034202 -0.11477378 58.5234375 -0.09765625 C60.4260862 -0.097407 60.4260862 -0.097407 62.36717224 -0.09715271 C67.47535495 0.64296541 70.47080925 2.7130584 73.67616272 6.71144104 C75.13168097 10.11864316 75.21445385 12.78111492 75.23046875 16.48583984 C75.24076363 17.52586403 75.24076363 17.52586403 75.25126648 18.5868988 C75.26950048 20.86860901 75.26570206 23.14962936 75.26000977 25.43139648 C75.26457333 27.02413658 75.26987942 28.61687471 75.27589417 30.20960999 C75.28481864 33.54428111 75.28240995 36.87871266 75.27246094 40.21337891 C75.26097377 44.47837244 75.28118153 48.7425377 75.31037807 53.00742245 C75.32875984 56.29579385 75.3284437 59.58396749 75.32274055 62.8723774 C75.32258757 64.44439417 75.32861298 66.01642454 75.34103203 67.58839226 C75.35597806 69.7904075 75.34524077 71.99090213 75.328125 74.19287109 C75.32787575 76.06887245 75.32787575 76.06887245 75.32762146 77.98277283 C74.58327545 83.06375527 72.49805625 86.060621 68.52476501 89.25379944 C65.08873849 90.71851021 62.38773772 90.79218637 58.65283203 90.80810547 C57.949729 90.81496872 57.24662598 90.82183197 56.5222168 90.8289032 C54.20804399 90.84713956 51.89455121 90.84333842 49.58032227 90.83764648 C47.96516195 90.84220993 46.35000358 90.84751599 44.73484802 90.85353088 C41.35309959 90.86245582 37.97158738 90.86004612 34.58984375 90.85009766 C30.26432043 90.83861037 25.93961378 90.85881826 21.61419773 90.88801479 C18.27950392 90.9063952 14.94500514 90.90608069 11.61027336 90.90037727 C10.01592806 90.90022427 8.42156936 90.90625101 6.82727242 90.91866875 C4.59413125 90.93361215 2.36249001 90.92287925 0.12939453 90.90576172 C-1.13903793 90.90559555 -2.4074704 90.90542938 -3.71434021 90.90525818 C-8.64111384 90.19142419 -11.74491933 87.99445301 -15.03686523 84.32983398 C-16.79836281 79.79594503 -16.48612442 75.40247437 -16.36108398 70.59155273 C-16.29920898 67.22967773 -16.23733398 63.86780273 -16.17358398 60.40405273 C-26.07358398 60.40405273 -35.97358398 60.40405273 -46.17358398 60.40405273 C-46.17358398 90.10405273 -46.17358398 119.80405273 -46.17358398 150.40405273 C-36.27358398 150.40405273 -26.37358398 150.40405273 -16.17358398 150.40405273 C-16.33105671 143.76250651 -16.33105671 143.76250651 -16.53393555 137.12231445 C-16.60231545 131.38832832 -16.21820277 127.8201161 -12.17358398 123.40405273 C-8.07881841 120.36080782 -5.05213942 120.02153348 0 120 C0.70310303 119.99313675 1.40620605 119.9862735 2.13061523 119.97920227 C4.44478804 119.9609659 6.75828082 119.96476705 9.07250977 119.97045898 C10.68767008 119.96589554 12.30282845 119.96058948 13.91798401 119.95457458 C17.29973244 119.94564965 20.68124465 119.94805935 24.06298828 119.95800781 C28.3885116 119.9694951 32.71321825 119.94928721 37.0386343 119.92009068 C40.37332811 119.90171027 43.7078269 119.90202478 47.04255867 119.9077282 C48.63690397 119.9078812 50.23126267 119.90185445 51.82555962 119.88943672 C54.05870079 119.87449332 56.29034202 119.88522622 58.5234375 119.90234375 C60.4260862 119.902593 60.4260862 119.902593 62.36717224 119.90284729 C67.47535495 120.64296541 70.47080925 122.7130584 73.67616272 126.71144104 C75.13168097 130.11864316 75.21445385 132.78111492 75.23046875 136.48583984 C75.24076363 137.52586403 75.24076363 137.52586403 75.25126648 138.5868988 C75.26950048 140.86860901 75.26570206 143.14962936 75.26000977 145.43139648 C75.26457333 147.02413658 75.26987942 148.61687471 75.27589417 150.20960999 C75.28481864 153.54428111 75.28240995 156.87871266 75.27246094 160.21337891 C75.26097377 164.47837244 75.28118153 168.7425377 75.31037807 173.00742245 C75.32875984 176.29579385 75.3284437 179.58396749 75.32274055 182.8723774 C75.32258757 184.44439417 75.32861298 186.01642454 75.34103203 187.58839226 C75.35597806 189.7904075 75.34524077 191.99090213 75.328125 194.19287109 C75.32787575 196.06887245 75.32787575 196.06887245 75.32762146 197.98277283 C74.58327545 203.06375527 72.49805625 206.060621 68.52476501 209.25379944 C65.08873849 210.71851021 62.38773772 210.79218637 58.65283203 210.80810547 C57.949729 210.81496872 57.24662598 210.82183197 56.5222168 210.8289032 C54.20804399 210.84713956 51.89455121 210.84333842 49.58032227 210.83764648 C47.96516195 210.84220993 46.35000358 210.84751599 44.73484802 210.85353088 C41.35309959 210.86245582 37.97158738 210.86004612 34.58984375 210.85009766 C30.26432043 210.83861037 25.93961378 210.85881826 21.61419773 210.88801479 C18.27950392 210.9063952 14.94500514 210.90608069 11.61027336 210.90037727 C10.01592806 210.90022427 8.42156936 210.90625101 6.82727242 210.91866875 C4.59413125 210.93361215 2.36249001 210.92287925 0.12939453 210.90576172 C-1.13903793 210.90559555 -2.4074704 210.90542938 -3.71434021 210.90525818 C-8.64111384 210.19142419 -11.74491933 207.99445301 -15.03686523 204.32983398 C-16.79783814 199.79729547 -16.48711574 195.40338055 -16.36108398 190.59155273 C-16.34754883 189.61250977 -16.33401367 188.6334668 -16.32006836 187.62475586 C-16.2848371 185.21728648 -16.23557663 182.81095709 -16.17358398 180.40405273 C-16.7991922 180.41293518 -17.42480042 180.42181763 -18.06936646 180.43096924 C-24.59066618 180.51957968 -31.1117944 180.57984403 -37.63354492 180.6237793 C-40.06623279 180.64387344 -42.49887249 180.67115362 -44.93139648 180.70581055 C-48.43151754 180.75442334 -51.930999 180.77704412 -55.43139648 180.79467773 C-56.51599152 180.81532288 -57.60058655 180.83596802 -58.7180481 180.85723877 C-64.68132206 180.85900404 -68.60323019 180.66607818 -73.17358398 176.40405273 C-77.4632068 171.73200201 -76.55133372 165.72642098 -76.46655273 159.75952148 C-76.46230789 158.63459793 -76.45806305 157.50967438 -76.45368958 156.35066223 C-76.43692089 152.76404712 -76.39927087 149.17799752 -76.36108398 145.59155273 C-76.34603486 143.15731607 -76.33234685 140.72307058 -76.32006836 138.28881836 C-76.28957749 132.3268376 -76.23084996 126.36607687 -76.17358398 120.40405273 C-86.07358398 120.40405273 -95.97358398 120.40405273 -106.17358398 120.40405273 C-106.01611126 127.04559896 -106.01611126 127.04559896 -105.81323242 133.68579102 C-105.74485251 139.41977715 -106.1289652 142.98798937 -110.17358398 147.40405273 C-114.2451099 150.4221379 -117.23475901 150.78640221 -122.25537109 150.80810547 C-123.29539528 150.81840034 -123.29539528 150.81840034 -124.35643005 150.8289032 C-126.63814026 150.84713719 -128.91916061 150.84333878 -131.20092773 150.83764648 C-132.79366783 150.84221005 -134.38640596 150.84751614 -135.97914124 150.85353088 C-139.31381236 150.86245536 -142.64824391 150.86004667 -145.98291016 150.85009766 C-150.24790369 150.83861049 -154.51206895 150.85881825 -158.7769537 150.88801479 C-162.0653251 150.90639656 -165.35349874 150.90608042 -168.64190865 150.90037727 C-170.21392542 150.90022429 -171.78595579 150.9062497 -173.35792351 150.91866875 C-175.55993875 150.93361478 -177.76043338 150.92287749 -179.96240234 150.90576172 C-181.21306992 150.90559555 -182.46373749 150.90542938 -183.75230408 150.90525818 C-188.83516999 150.16063624 -191.83357633 148.07558862 -195.02333069 144.09666443 C-196.47884894 140.68946231 -196.56162182 138.02699055 -196.57763672 134.32226562 C-196.58449997 133.62891617 -196.59136322 132.93556671 -196.59843445 132.22120667 C-196.61666844 129.93949646 -196.61287003 127.6584761 -196.60717773 125.37670898 C-196.6117413 123.78396889 -196.61704739 122.19123076 -196.62306213 120.59849548 C-196.63198661 117.26382436 -196.62957792 113.92939281 -196.61962891 110.59472656 C-196.60814174 106.32973303 -196.6283495 102.06556777 -196.65754604 97.80068302 C-196.67592781 94.51231162 -196.67561167 91.22413798 -196.66990852 87.93572807 C-196.66975554 86.3637113 -196.67578095 84.79168093 -196.6882 83.21971321 C-196.70314603 81.01769797 -196.69240874 78.81720334 -196.67529297 76.61523438 C-196.6751268 75.3645668 -196.67496063 74.11389923 -196.67478943 72.82533264 C-195.93016749 67.74246672 -193.84511987 64.74406039 -189.86619568 61.55430603 C-186.45899356 60.09878778 -183.7965218 60.0160149 -180.09179688 60 C-179.39844742 59.99313675 -178.70509796 59.9862735 -177.99073792 59.97920227 C-175.70902771 59.96096827 -173.42800735 59.96476669 -171.14624023 59.97045898 C-169.55350014 59.96589542 -167.96076201 59.96058933 -166.36802673 59.95457458 C-163.03335561 59.94565011 -159.69892406 59.9480588 -156.36425781 59.95800781 C-152.09926428 59.96949498 -147.83509902 59.94928722 -143.57021427 59.92009068 C-140.28184287 59.90170891 -136.99366923 59.90202505 -133.70525932 59.9077282 C-132.13324255 59.90788118 -130.56121218 59.90185577 -128.98924446 59.88943672 C-126.78722922 59.87449069 -124.58673459 59.88522798 -122.38476562 59.90234375 C-120.50876427 59.902593 -120.50876427 59.902593 -118.59486389 59.90284729 C-113.69372375 60.62084704 -110.58570162 62.83207272 -107.31030273 66.47827148 C-105.54880516 71.01216044 -105.86104355 75.4056311 -105.98608398 80.21655273 C-106.04795898 83.57842773 -106.10983398 86.94030273 -106.17358398 90.40405273 C-96.27358398 90.40405273 -86.37358398 90.40405273 -76.17358398 90.40405273 C-76.21999023 86.79209961 -76.26639648 83.18014648 -76.31420898 79.45874023 C-76.34541927 75.95387171 -76.3696988 72.44901877 -76.39331055 68.9440918 C-76.41340469 66.51140392 -76.44068487 64.07876422 -76.4753418 61.64624023 C-76.52395459 58.14611918 -76.54657537 54.64663772 -76.56420898 51.14624023 C-76.58485413 50.0616452 -76.60549927 48.97705017 -76.62677002 47.85958862 C-76.62853529 41.89631466 -76.43560943 37.97440653 -72.17358398 33.40405273 C-67.50153326 29.11442992 -61.49595223 30.026303 -55.52905273 30.11108398 C-54.40412918 30.11532883 -53.27920563 30.11957367 -52.12019348 30.12394714 C-48.53357837 30.14071583 -44.94752877 30.17836585 -41.36108398 30.21655273 C-38.92684732 30.23160186 -36.49260183 30.24528987 -34.05834961 30.25756836 C-28.0965687 30.29061348 -22.13511675 30.34079545 -16.17358398 30.40405273 C-16.19453125 29.79932129 -16.21547852 29.19458984 -16.23706055 28.5715332 C-16.32067344 25.80754502 -16.37238452 23.04382361 -16.42358398 20.27905273 C-16.45709961 19.32772461 -16.49061523 18.37639648 -16.52514648 17.39624023 C-16.60625727 11.55626361 -16.29855074 7.90784297 -12.17358398 3.40405273 C-8.07881841 0.36080782 -5.05213942 0.02153348 0 0 Z " fill="#5BC980" transform="translate(437.173583984375,270.595947265625)"/>
<path d="M0 0 C1.67592728 -0.01485695 1.67592728 -0.01485695 3.38571167 -0.03001404 C4.60195724 -0.02551239 5.81820282 -0.02101074 7.07130432 -0.01637268 C8.35962158 -0.02323593 9.64793884 -0.03009918 10.97529602 -0.03717041 C14.50222218 -0.05509324 18.02889942 -0.05393515 21.55585742 -0.04822803 C24.50316023 -0.04513479 27.45041532 -0.05123013 30.39771134 -0.05726677 C37.35226328 -0.07130758 44.30669237 -0.06975453 51.26124573 -0.05836487 C58.42943366 -0.04688455 65.59724742 -0.06095859 72.76538604 -0.08776134 C78.92606596 -0.10993226 85.08662854 -0.1165526 91.24734551 -0.11068493 C94.92408685 -0.10731737 98.60058837 -0.1097167 102.27729607 -0.12693596 C106.37814329 -0.14530386 110.47826447 -0.13120385 114.57911682 -0.11402893 C115.79333817 -0.1236969 117.00755951 -0.13336487 118.25857544 -0.14332581 C128.74532196 -0.05125575 128.74532196 -0.05125575 133.38990784 4.38768005 C135.97359143 8.03566454 136.7663304 10.5075286 136.77758789 14.95980835 C136.78749252 16.06867905 136.79739716 17.17754974 136.80760193 18.32002258 C136.80310028 19.52691742 136.79859863 20.73381226 136.79396057 21.97727966 C136.80082382 23.25584335 136.80768707 24.53440704 136.8147583 25.85171509 C136.83268033 29.35178316 136.83152319 32.85160039 136.82581592 36.35170054 C136.82272256 39.27663554 136.82881816 42.20152245 136.83485466 45.1264506 C136.84889521 52.02826514 136.84734265 58.92995588 136.83595276 65.83177185 C136.82447249 72.94542929 136.83854645 80.05870969 136.86534923 87.17231745 C136.88752069 93.28628882 136.89414037 99.40014196 136.88827282 105.51415068 C136.88490539 109.16294705 136.88730376 112.81150175 136.90452385 116.46026421 C136.92289284 120.52998023 136.90879121 124.59896472 136.89161682 128.66868591 C136.90611877 130.47599182 136.90611877 130.47599182 136.9209137 132.31980896 C136.86676342 138.44117432 136.82819838 142.73260658 132.38990784 147.38768005 C128.72993638 149.98310959 126.24791965 150.76414864 121.77981567 150.77536011 C120.66253082 150.78526474 119.54524597 150.79516937 118.394104 150.80537415 C117.17785843 150.8008725 115.96161285 150.79637085 114.70851135 150.79173279 C113.42019409 150.79859604 112.13187683 150.80545929 110.80451965 150.81253052 C107.2775935 150.83045335 103.75091625 150.82929525 100.22395825 150.82358813 C97.27665544 150.8204949 94.32940035 150.82659024 91.38210434 150.83262688 C84.4275524 150.84666769 77.47312331 150.84511464 70.51856995 150.83372498 C63.35038201 150.82224466 56.18256826 150.8363187 49.01442963 150.86312145 C42.85374971 150.88529237 36.69318714 150.8919127 30.53247017 150.88604504 C26.85572882 150.88267748 23.17922731 150.88507681 19.50251961 150.90229607 C15.40167238 150.92066397 11.3015512 150.90656396 7.20069885 150.88938904 C5.98647751 150.89905701 4.77225616 150.90872498 3.52124023 150.91868591 C-6.96550629 150.82661586 -6.96550629 150.82661586 -11.61009216 146.38768005 C-14.19377576 142.73969557 -14.98651473 140.26783151 -14.99777222 135.81555176 C-15.00767685 134.70668106 -15.01758148 133.59781036 -15.02778625 132.45533752 C-15.02328461 131.24844269 -15.01878296 130.04154785 -15.0141449 128.79808044 C-15.02100815 127.51951675 -15.0278714 126.24095306 -15.03494263 124.92364502 C-15.05286465 121.42357695 -15.05170752 117.92375971 -15.04600024 114.42365956 C-15.04290689 111.49872457 -15.04900248 108.57383766 -15.05503899 105.64890951 C-15.06907954 98.74709497 -15.06752697 91.84540422 -15.05613708 84.94358826 C-15.04465681 77.82993081 -15.05873078 70.71665042 -15.08553356 63.60304266 C-15.10770502 57.48907129 -15.11432469 51.37521814 -15.10845715 45.26120943 C-15.10508971 41.61241306 -15.10748808 37.96385836 -15.12470818 34.3150959 C-15.14307716 30.24537988 -15.12897553 26.17639539 -15.11180115 22.10667419 C-15.12146912 20.90180359 -15.13113708 19.69693298 -15.14109802 18.45555115 C-15.08694775 12.33418579 -15.0483827 8.04275352 -10.61009216 3.38768005 C-6.95012071 0.79225052 -4.46810398 0.01121147 0 0 Z " fill="#F03800" transform="translate(14.610092163085938,180.61231994628906)"/>
<path d="M0 0 C1.67592728 -0.01485695 1.67592728 -0.01485695 3.38571167 -0.03001404 C4.60195724 -0.02551239 5.81820282 -0.02101074 7.07130432 -0.01637268 C8.35962158 -0.02323593 9.64793884 -0.03009918 10.97529602 -0.03717041 C14.50222218 -0.05509324 18.02889942 -0.05393515 21.55585742 -0.04822803 C24.50316023 -0.04513479 27.45041532 -0.05123013 30.39771134 -0.05726677 C37.35226328 -0.07130758 44.30669237 -0.06975453 51.26124573 -0.05836487 C58.42943366 -0.04688455 65.59724742 -0.06095859 72.76538604 -0.08776134 C78.92606596 -0.10993226 85.08662854 -0.1165526 91.24734551 -0.11068493 C94.92408685 -0.10731737 98.60058837 -0.1097167 102.27729607 -0.12693596 C106.37814329 -0.14530386 110.47826447 -0.13120385 114.57911682 -0.11402893 C115.79333817 -0.1236969 117.00755951 -0.13336487 118.25857544 -0.14332581 C128.74532196 -0.05125575 128.74532196 -0.05125575 133.38990784 4.38768005 C145.57717216 24.69978726 136.38990784 51.69989605 136.38990784 75.38768005 C86.55990784 75.38768005 36.72990784 75.38768005 -14.61009216 75.38768005 C-14.61009216 9.38768005 -14.61009216 9.38768005 -10.61009216 3.38768005 C-7.04193059 0.63535404 -4.46272704 0.01119797 0 0 Z " fill="#FF641A" transform="translate(14.610092163085938,180.61231994628906)"/>
<path d="M0 0 C1.12492355 0.00424484 2.24984711 0.00848969 3.40885925 0.01286316 C6.99547437 0.02963185 10.58152396 0.06728187 14.16796875 0.10546875 C16.60220542 0.12051788 19.03645091 0.13420588 21.47070312 0.14648438 C27.43268389 0.17697524 33.39344461 0.23570278 39.35546875 0.29296875 C39.35546875 10.19296875 39.35546875 20.09296875 39.35546875 30.29296875 C29.45546875 30.29296875 19.55546875 30.29296875 9.35546875 30.29296875 C9.35546875 99.59296875 9.35546875 168.89296875 9.35546875 240.29296875 C19.25546875 240.29296875 29.15546875 240.29296875 39.35546875 240.29296875 C39.35546875 250.19296875 39.35546875 260.09296875 39.35546875 270.29296875 C32.20150357 270.38488265 25.04959337 270.46450018 17.89550781 270.51269531 C15.46281994 270.53278946 13.03018024 270.56006963 10.59765625 270.59472656 C7.0975352 270.64333935 3.59805373 270.66596014 0.09765625 270.68359375 C-0.98693878 270.70423889 -2.07153381 270.72488403 -3.18899536 270.74615479 C-9.15226933 270.74792006 -13.07417745 270.5549942 -17.64453125 266.29296875 C-21.61385292 261.50008678 -21.04764169 256.44940624 -20.98510742 250.53588867 C-20.98576454 248.91082397 -20.98576454 248.91082397 -20.98643494 247.25292969 C-20.98434691 243.67624822 -20.96101444 240.10003697 -20.9375 236.5234375 C-20.93190412 234.04193884 -20.92763398 231.56043687 -20.92463684 229.07893372 C-20.91318756 222.55061681 -20.88371933 216.02250043 -20.8505249 209.4942627 C-20.81820379 202.83150005 -20.80613186 196.16867907 -20.79101562 189.50585938 C-20.75884996 176.4347936 -20.70608101 163.36392923 -20.64453125 150.29296875 C-30.54453125 150.29296875 -40.44453125 150.29296875 -50.64453125 150.29296875 C-50.64453125 140.39296875 -50.64453125 130.49296875 -50.64453125 120.29296875 C-40.74453125 120.29296875 -30.84453125 120.29296875 -20.64453125 120.29296875 C-20.66547852 116.96187012 -20.68642578 113.63077148 -20.70800781 110.19873047 C-20.77427772 99.19454989 -20.81846674 88.1903605 -20.85177994 77.18603325 C-20.87265725 70.51387551 -20.90097809 63.8419619 -20.94628906 57.16992188 C-20.98974065 50.73140579 -21.0136673 44.29308636 -21.02404022 37.85443497 C-21.03143273 35.39762399 -21.04586843 32.94082382 -21.06745148 30.48409653 C-21.09647522 27.04368555 -21.10048753 23.60408786 -21.09863281 20.16357422 C-21.12020447 18.63903374 -21.12020447 18.63903374 -21.14221191 17.08369446 C-21.10758385 11.15002306 -20.55505724 7.83466237 -16.64453125 3.29296875 C-11.97248053 -0.99665406 -5.96689949 -0.08478098 0 0 Z " fill="#47568C" transform="translate(201.64453125,120.70703125)"/>
<path d="M0 0 C0.70310303 -0.00686325 1.40620605 -0.0137265 2.13061523 -0.02079773 C4.44478804 -0.0390341 6.75828082 -0.03523295 9.07250977 -0.02954102 C10.68767008 -0.03410446 12.30282845 -0.03941052 13.91798401 -0.04542542 C17.29973244 -0.05435035 20.68124465 -0.05194065 24.06298828 -0.04199219 C28.3885116 -0.0305049 32.71321825 -0.05071279 37.0386343 -0.07990932 C40.37332811 -0.09828973 43.7078269 -0.09797522 47.04255867 -0.0922718 C48.63690397 -0.0921188 50.23126267 -0.09814555 51.82555962 -0.11056328 C54.05870079 -0.12550668 56.29034202 -0.11477378 58.5234375 -0.09765625 C60.4260862 -0.097407 60.4260862 -0.097407 62.36717224 -0.09715271 C67.47535495 0.64296541 70.47080925 2.7130584 73.67616272 6.71144104 C75.13168097 10.11864316 75.21445385 12.78111492 75.23046875 16.48583984 C75.237332 17.1791893 75.24419525 17.87253876 75.25126648 18.5868988 C75.26950048 20.86860901 75.26570206 23.14962936 75.26000977 25.43139648 C75.26457333 27.02413658 75.26987942 28.61687471 75.27589417 30.20960999 C75.28481864 33.54428111 75.28240995 36.87871266 75.27246094 40.21337891 C75.26097377 44.47837244 75.28118153 48.7425377 75.31037807 53.00742245 C75.32875984 56.29579385 75.3284437 59.58396749 75.32274055 62.8723774 C75.32258757 64.44439417 75.32861298 66.01642454 75.34103203 67.58839226 C75.35597806 69.7904075 75.34524077 71.99090213 75.328125 74.19287109 C75.32795883 75.44353867 75.32779266 76.69420624 75.32762146 77.98277283 C74.58327545 83.06375527 72.49805625 86.060621 68.52476501 89.25379944 C65.08873849 90.71851021 62.38773772 90.79218637 58.65283203 90.80810547 C57.949729 90.81496872 57.24662598 90.82183197 56.5222168 90.8289032 C54.20804399 90.84713956 51.89455121 90.84333842 49.58032227 90.83764648 C47.96516195 90.84220993 46.35000358 90.84751599 44.73484802 90.85353088 C41.35309959 90.86245582 37.97158738 90.86004612 34.58984375 90.85009766 C30.26432043 90.83861037 25.93961378 90.85881826 21.61419773 90.88801479 C18.27950392 90.9063952 14.94500514 90.90608069 11.61027336 90.90037727 C10.01592806 90.90022427 8.42156936 90.90625101 6.82727242 90.91866875 C4.59413125 90.93361215 2.36249001 90.92287925 0.12939453 90.90576172 C-1.13903793 90.90559555 -2.4074704 90.90542938 -3.71434021 90.90525818 C-8.82252292 90.16514006 -11.81797722 88.09504707 -15.02333069 84.09666443 C-16.47884894 80.68946231 -16.56162182 78.02699055 -16.57763672 74.32226562 C-16.58449997 73.62891617 -16.59136322 72.93556671 -16.59843445 72.22120667 C-16.61666844 69.93949646 -16.61287003 67.6584761 -16.60717773 65.37670898 C-16.6117413 63.78396889 -16.61704739 62.19123076 -16.62306213 60.59849548 C-16.63198661 57.26382436 -16.62957792 53.92939281 -16.61962891 50.59472656 C-16.60814174 46.32973303 -16.6283495 42.06556777 -16.65754604 37.80068302 C-16.67592781 34.51231162 -16.67561167 31.22413798 -16.66990852 27.93572807 C-16.66975554 26.3637113 -16.67578095 24.79168093 -16.6882 23.21971321 C-16.70314603 21.01769797 -16.69240874 18.81720334 -16.67529297 16.61523438 C-16.6751268 15.3645668 -16.67496063 14.11389923 -16.67478943 12.82533264 C-15.93044341 7.7443502 -13.84522421 4.74748447 -9.87193298 1.55430603 C-6.43590646 0.08959526 -3.73490569 0.0159191 0 0 Z " fill="#00C0F1" transform="translate(437.173583984375,390.595947265625)"/>
<path d="M0 0 C0.70310303 -0.00686325 1.40620605 -0.0137265 2.13061523 -0.02079773 C4.44478804 -0.0390341 6.75828082 -0.03523295 9.07250977 -0.02954102 C10.68767008 -0.03410446 12.30282845 -0.03941052 13.91798401 -0.04542542 C17.29973244 -0.05435035 20.68124465 -0.05194065 24.06298828 -0.04199219 C28.3885116 -0.0305049 32.71321825 -0.05071279 37.0386343 -0.07990932 C40.37332811 -0.09828973 43.7078269 -0.09797522 47.04255867 -0.0922718 C48.63690397 -0.0921188 50.23126267 -0.09814555 51.82555962 -0.11056328 C54.05870079 -0.12550668 56.29034202 -0.11477378 58.5234375 -0.09765625 C60.4260862 -0.097407 60.4260862 -0.097407 62.36717224 -0.09715271 C67.47535495 0.64296541 70.47080925 2.7130584 73.67616272 6.71144104 C75.13168097 10.11864316 75.21445385 12.78111492 75.23046875 16.48583984 C75.237332 17.1791893 75.24419525 17.87253876 75.25126648 18.5868988 C75.26950048 20.86860901 75.26570206 23.14962936 75.26000977 25.43139648 C75.26457333 27.02413658 75.26987942 28.61687471 75.27589417 30.20960999 C75.28481864 33.54428111 75.28240995 36.87871266 75.27246094 40.21337891 C75.26097377 44.47837244 75.28118153 48.7425377 75.31037807 53.00742245 C75.32875984 56.29579385 75.3284437 59.58396749 75.32274055 62.8723774 C75.32258757 64.44439417 75.32861298 66.01642454 75.34103203 67.58839226 C75.35597806 69.7904075 75.34524077 71.99090213 75.328125 74.19287109 C75.32795883 75.44353867 75.32779266 76.69420624 75.32762146 77.98277283 C74.58327545 83.06375527 72.49805625 86.060621 68.52476501 89.25379944 C65.08873849 90.71851021 62.38773772 90.79218637 58.65283203 90.80810547 C57.949729 90.81496872 57.24662598 90.82183197 56.5222168 90.8289032 C54.20804399 90.84713956 51.89455121 90.84333842 49.58032227 90.83764648 C47.96516195 90.84220993 46.35000358 90.84751599 44.73484802 90.85353088 C41.35309959 90.86245582 37.97158738 90.86004612 34.58984375 90.85009766 C30.26432043 90.83861037 25.93961378 90.85881826 21.61419773 90.88801479 C18.27950392 90.9063952 14.94500514 90.90608069 11.61027336 90.90037727 C10.01592806 90.90022427 8.42156936 90.90625101 6.82727242 90.91866875 C4.59413125 90.93361215 2.36249001 90.92287925 0.12939453 90.90576172 C-1.13903793 90.90559555 -2.4074704 90.90542938 -3.71434021 90.90525818 C-8.82252292 90.16514006 -11.81797722 88.09504707 -15.02333069 84.09666443 C-16.47884894 80.68946231 -16.56162182 78.02699055 -16.57763672 74.32226562 C-16.58449997 73.62891617 -16.59136322 72.93556671 -16.59843445 72.22120667 C-16.61666844 69.93949646 -16.61287003 67.6584761 -16.60717773 65.37670898 C-16.6117413 63.78396889 -16.61704739 62.19123076 -16.62306213 60.59849548 C-16.63198661 57.26382436 -16.62957792 53.92939281 -16.61962891 50.59472656 C-16.60814174 46.32973303 -16.6283495 42.06556777 -16.65754604 37.80068302 C-16.67592781 34.51231162 -16.67561167 31.22413798 -16.66990852 27.93572807 C-16.66975554 26.3637113 -16.67578095 24.79168093 -16.6882 23.21971321 C-16.70314603 21.01769797 -16.69240874 18.81720334 -16.67529297 16.61523438 C-16.6751268 15.3645668 -16.67496063 14.11389923 -16.67478943 12.82533264 C-15.93044341 7.7443502 -13.84522421 4.74748447 -9.87193298 1.55430603 C-6.43590646 0.08959526 -3.73490569 0.0159191 0 0 Z " fill="#00C0F1" transform="translate(437.173583984375,270.595947265625)"/>
<path d="M0 0 C0.70310303 -0.00686325 1.40620605 -0.0137265 2.13061523 -0.02079773 C4.44478804 -0.0390341 6.75828082 -0.03523295 9.07250977 -0.02954102 C10.68767008 -0.03410446 12.30282845 -0.03941052 13.91798401 -0.04542542 C17.29973244 -0.05435035 20.68124465 -0.05194065 24.06298828 -0.04199219 C28.3885116 -0.0305049 32.71321825 -0.05071279 37.0386343 -0.07990932 C40.37332811 -0.09828973 43.7078269 -0.09797522 47.04255867 -0.0922718 C48.63690397 -0.0921188 50.23126267 -0.09814555 51.82555962 -0.11056328 C54.05870079 -0.12550668 56.29034202 -0.11477378 58.5234375 -0.09765625 C60.4260862 -0.097407 60.4260862 -0.097407 62.36717224 -0.09715271 C67.47535495 0.64296541 70.47080925 2.7130584 73.67616272 6.71144104 C75.13168097 10.11864316 75.21445385 12.78111492 75.23046875 16.48583984 C75.237332 17.1791893 75.24419525 17.87253876 75.25126648 18.5868988 C75.26950048 20.86860901 75.26570206 23.14962936 75.26000977 25.43139648 C75.26457333 27.02413658 75.26987942 28.61687471 75.27589417 30.20960999 C75.28481864 33.54428111 75.28240995 36.87871266 75.27246094 40.21337891 C75.26097377 44.47837244 75.28118153 48.7425377 75.31037807 53.00742245 C75.32875984 56.29579385 75.3284437 59.58396749 75.32274055 62.8723774 C75.32258757 64.44439417 75.32861298 66.01642454 75.34103203 67.58839226 C75.35597806 69.7904075 75.34524077 71.99090213 75.328125 74.19287109 C75.32795883 75.44353867 75.32779266 76.69420624 75.32762146 77.98277283 C74.58327545 83.06375527 72.49805625 86.060621 68.52476501 89.25379944 C65.08873849 90.71851021 62.38773772 90.79218637 58.65283203 90.80810547 C57.949729 90.81496872 57.24662598 90.82183197 56.5222168 90.8289032 C54.20804399 90.84713956 51.89455121 90.84333842 49.58032227 90.83764648 C47.96516195 90.84220993 46.35000358 90.84751599 44.73484802 90.85353088 C41.35309959 90.86245582 37.97158738 90.86004612 34.58984375 90.85009766 C30.26432043 90.83861037 25.93961378 90.85881826 21.61419773 90.88801479 C18.27950392 90.9063952 14.94500514 90.90608069 11.61027336 90.90037727 C10.01592806 90.90022427 8.42156936 90.90625101 6.82727242 90.91866875 C4.59413125 90.93361215 2.36249001 90.92287925 0.12939453 90.90576172 C-1.13903793 90.90559555 -2.4074704 90.90542938 -3.71434021 90.90525818 C-8.82252292 90.16514006 -11.81797722 88.09504707 -15.02333069 84.09666443 C-16.47884894 80.68946231 -16.56162182 78.02699055 -16.57763672 74.32226562 C-16.58449997 73.62891617 -16.59136322 72.93556671 -16.59843445 72.22120667 C-16.61666844 69.93949646 -16.61287003 67.6584761 -16.60717773 65.37670898 C-16.6117413 63.78396889 -16.61704739 62.19123076 -16.62306213 60.59849548 C-16.63198661 57.26382436 -16.62957792 53.92939281 -16.61962891 50.59472656 C-16.60814174 46.32973303 -16.6283495 42.06556777 -16.65754604 37.80068302 C-16.67592781 34.51231162 -16.67561167 31.22413798 -16.66990852 27.93572807 C-16.66975554 26.3637113 -16.67578095 24.79168093 -16.6882 23.21971321 C-16.70314603 21.01769797 -16.69240874 18.81720334 -16.67529297 16.61523438 C-16.6751268 15.3645668 -16.67496063 14.11389923 -16.67478943 12.82533264 C-15.93044341 7.7443502 -13.84522421 4.74748447 -9.87193298 1.55430603 C-6.43590646 0.08959526 -3.73490569 0.0159191 0 0 Z " fill="#24D9F8" transform="translate(437.173583984375,150.595947265625)"/>
<path d="M0 0 C0.70310303 -0.00686325 1.40620605 -0.0137265 2.13061523 -0.02079773 C4.44478804 -0.0390341 6.75828082 -0.03523295 9.07250977 -0.02954102 C10.68767008 -0.03410446 12.30282845 -0.03941052 13.91798401 -0.04542542 C17.29973244 -0.05435035 20.68124465 -0.05194065 24.06298828 -0.04199219 C28.3885116 -0.0305049 32.71321825 -0.05071279 37.0386343 -0.07990932 C40.37332811 -0.09828973 43.7078269 -0.09797522 47.04255867 -0.0922718 C48.63690397 -0.0921188 50.23126267 -0.09814555 51.82555962 -0.11056328 C54.05870079 -0.12550668 56.29034202 -0.11477378 58.5234375 -0.09765625 C60.4260862 -0.097407 60.4260862 -0.097407 62.36717224 -0.09715271 C67.47535495 0.64296541 70.47080925 2.7130584 73.67616272 6.71144104 C75.13168097 10.11864316 75.21445385 12.78111492 75.23046875 16.48583984 C75.237332 17.1791893 75.24419525 17.87253876 75.25126648 18.5868988 C75.26950048 20.86860901 75.26570206 23.14962936 75.26000977 25.43139648 C75.26457333 27.02413658 75.26987942 28.61687471 75.27589417 30.20960999 C75.28481864 33.54428111 75.28240995 36.87871266 75.27246094 40.21337891 C75.26097377 44.47837244 75.28118153 48.7425377 75.31037807 53.00742245 C75.32875984 56.29579385 75.3284437 59.58396749 75.32274055 62.8723774 C75.32258757 64.44439417 75.32861298 66.01642454 75.34103203 67.58839226 C75.35597806 69.7904075 75.34524077 71.99090213 75.328125 74.19287109 C75.32795883 75.44353867 75.32779266 76.69420624 75.32762146 77.98277283 C74.58327545 83.06375527 72.49805625 86.060621 68.52476501 89.25379944 C65.08873849 90.71851021 62.38773772 90.79218637 58.65283203 90.80810547 C57.949729 90.81496872 57.24662598 90.82183197 56.5222168 90.8289032 C54.20804399 90.84713956 51.89455121 90.84333842 49.58032227 90.83764648 C47.96516195 90.84220993 46.35000358 90.84751599 44.73484802 90.85353088 C41.35309959 90.86245582 37.97158738 90.86004612 34.58984375 90.85009766 C30.26432043 90.83861037 25.93961378 90.85881826 21.61419773 90.88801479 C18.27950392 90.9063952 14.94500514 90.90608069 11.61027336 90.90037727 C10.01592806 90.90022427 8.42156936 90.90625101 6.82727242 90.91866875 C4.59413125 90.93361215 2.36249001 90.92287925 0.12939453 90.90576172 C-1.13903793 90.90559555 -2.4074704 90.90542938 -3.71434021 90.90525818 C-8.82252292 90.16514006 -11.81797722 88.09504707 -15.02333069 84.09666443 C-16.47884894 80.68946231 -16.56162182 78.02699055 -16.57763672 74.32226562 C-16.58449997 73.62891617 -16.59136322 72.93556671 -16.59843445 72.22120667 C-16.61666844 69.93949646 -16.61287003 67.6584761 -16.60717773 65.37670898 C-16.6117413 63.78396889 -16.61704739 62.19123076 -16.62306213 60.59849548 C-16.63198661 57.26382436 -16.62957792 53.92939281 -16.61962891 50.59472656 C-16.60814174 46.32973303 -16.6283495 42.06556777 -16.65754604 37.80068302 C-16.67592781 34.51231162 -16.67561167 31.22413798 -16.66990852 27.93572807 C-16.66975554 26.3637113 -16.67578095 24.79168093 -16.6882 23.21971321 C-16.70314603 21.01769797 -16.69240874 18.81720334 -16.67529297 16.61523438 C-16.6751268 15.3645668 -16.67496063 14.11389923 -16.67478943 12.82533264 C-15.93044341 7.7443502 -13.84522421 4.74748447 -9.87193298 1.55430603 C-6.43590646 0.08959526 -3.73490569 0.0159191 0 0 Z " fill="#24D9F8" transform="translate(437.173583984375,30.595947265625)"/>
<path d="M0 0 C1.12492355 0.00424484 2.24984711 0.00848969 3.40885925 0.01286316 C6.99547437 0.02963185 10.58152396 0.06728187 14.16796875 0.10546875 C16.60220542 0.12051788 19.03645091 0.13420588 21.47070312 0.14648438 C27.43268389 0.17697524 33.39344461 0.23570278 39.35546875 0.29296875 C39.35546875 10.19296875 39.35546875 20.09296875 39.35546875 30.29296875 C29.45546875 30.29296875 19.55546875 30.29296875 9.35546875 30.29296875 C9.35546875 59.99296875 9.35546875 89.69296875 9.35546875 120.29296875 C19.25546875 120.29296875 29.15546875 120.29296875 39.35546875 120.29296875 C39.35546875 130.19296875 39.35546875 140.09296875 39.35546875 150.29296875 C32.20150357 150.38488265 25.04959337 150.46450018 17.89550781 150.51269531 C15.46281994 150.53278946 13.03018024 150.56006963 10.59765625 150.59472656 C7.0975352 150.64333935 3.59805373 150.66596014 0.09765625 150.68359375 C-0.98693878 150.70423889 -2.07153381 150.72488403 -3.18899536 150.74615479 C-9.15226933 150.74792006 -13.07417745 150.5549942 -17.64453125 146.29296875 C-21.93415406 141.62091803 -21.02228098 135.61533699 -20.9375 129.6484375 C-20.93325516 128.52351395 -20.92901031 127.39859039 -20.92463684 126.23957825 C-20.90786815 122.65296313 -20.87021813 119.06691354 -20.83203125 115.48046875 C-20.81698212 113.04623208 -20.80329412 110.61198659 -20.79101562 108.17773438 C-20.76052476 102.21575361 -20.70179722 96.25499289 -20.64453125 90.29296875 C-30.54453125 90.29296875 -40.44453125 90.29296875 -50.64453125 90.29296875 C-50.64453125 80.39296875 -50.64453125 70.49296875 -50.64453125 60.29296875 C-40.74453125 60.29296875 -30.84453125 60.29296875 -20.64453125 60.29296875 C-20.6909375 56.68101562 -20.73734375 53.0690625 -20.78515625 49.34765625 C-20.81636654 45.84278773 -20.84064607 42.33793479 -20.86425781 38.83300781 C-20.88435196 36.40031994 -20.91163213 33.96768024 -20.94628906 31.53515625 C-20.99490185 28.0350352 -21.01752264 24.53555373 -21.03515625 21.03515625 C-21.05580139 19.95056122 -21.07644653 18.86596619 -21.09771729 17.74850464 C-21.09948256 11.78523067 -20.9065567 7.86332255 -16.64453125 3.29296875 C-11.97248053 -0.99665406 -5.96689949 -0.08478098 0 0 Z " fill="#47558C" transform="translate(381.64453125,300.70703125)"/>
<path d="M0 0 C1.12492355 0.00424484 2.24984711 0.00848969 3.40885925 0.01286316 C6.99547437 0.02963185 10.58152396 0.06728187 14.16796875 0.10546875 C16.60220542 0.12051788 19.03645091 0.13420588 21.47070312 0.14648438 C27.43268389 0.17697524 33.39344461 0.23570278 39.35546875 0.29296875 C39.35546875 10.19296875 39.35546875 20.09296875 39.35546875 30.29296875 C29.45546875 30.29296875 19.55546875 30.29296875 9.35546875 30.29296875 C9.35546875 59.99296875 9.35546875 89.69296875 9.35546875 120.29296875 C19.25546875 120.29296875 29.15546875 120.29296875 39.35546875 120.29296875 C39.35546875 130.19296875 39.35546875 140.09296875 39.35546875 150.29296875 C32.20150357 150.38488265 25.04959337 150.46450018 17.89550781 150.51269531 C15.46281994 150.53278946 13.03018024 150.56006963 10.59765625 150.59472656 C7.0975352 150.64333935 3.59805373 150.66596014 0.09765625 150.68359375 C-0.98693878 150.70423889 -2.07153381 150.72488403 -3.18899536 150.74615479 C-9.15226933 150.74792006 -13.07417745 150.5549942 -17.64453125 146.29296875 C-21.93415406 141.62091803 -21.02228098 135.61533699 -20.9375 129.6484375 C-20.93325516 128.52351395 -20.92901031 127.39859039 -20.92463684 126.23957825 C-20.90786815 122.65296313 -20.87021813 119.06691354 -20.83203125 115.48046875 C-20.81698212 113.04623208 -20.80329412 110.61198659 -20.79101562 108.17773438 C-20.76052476 102.21575361 -20.70179722 96.25499289 -20.64453125 90.29296875 C-30.54453125 90.29296875 -40.44453125 90.29296875 -50.64453125 90.29296875 C-50.64453125 80.39296875 -50.64453125 70.49296875 -50.64453125 60.29296875 C-40.74453125 60.29296875 -30.84453125 60.29296875 -20.64453125 60.29296875 C-20.6909375 56.68101563 -20.73734375 53.0690625 -20.78515625 49.34765625 C-20.81636654 45.84278773 -20.84064607 42.33793479 -20.86425781 38.83300781 C-20.88435196 36.40031994 -20.91163213 33.96768024 -20.94628906 31.53515625 C-20.99490185 28.0350352 -21.01752264 24.53555373 -21.03515625 21.03515625 C-21.05580139 19.95056122 -21.07644653 18.86596619 -21.09771729 17.74850464 C-21.09948256 11.78523067 -20.9065567 7.86332255 -16.64453125 3.29296875 C-11.97248053 -0.99665406 -5.96689949 -0.08478098 0 0 Z " fill="#60719B" transform="translate(381.64453125,60.70703125)"/>
<path d="M0 0 C1.12492355 0.00424484 2.24984711 0.00848969 3.40885925 0.01286316 C6.99547437 0.02963185 10.58152396 0.06728187 14.16796875 0.10546875 C16.60220542 0.12051788 19.03645091 0.13420588 21.47070312 0.14648438 C27.43268389 0.17697524 33.39344461 0.23570278 39.35546875 0.29296875 C39.35546875 10.19296875 39.35546875 20.09296875 39.35546875 30.29296875 C29.45546875 30.29296875 19.55546875 30.29296875 9.35546875 30.29296875 C9.35546875 64.94296875 9.35546875 99.59296875 9.35546875 135.29296875 C-10.44453125 135.29296875 -30.24453125 135.29296875 -50.64453125 135.29296875 C-50.64453125 130.34296875 -50.64453125 125.39296875 -50.64453125 120.29296875 C-40.74453125 120.29296875 -30.84453125 120.29296875 -20.64453125 120.29296875 C-20.66547852 116.96187012 -20.68642578 113.63077148 -20.70800781 110.19873047 C-20.77427772 99.19454989 -20.81846674 88.1903605 -20.85177994 77.18603325 C-20.87265725 70.51387551 -20.90097809 63.8419619 -20.94628906 57.16992188 C-20.98974065 50.73140579 -21.0136673 44.29308636 -21.02404022 37.85443497 C-21.03143273 35.39762399 -21.04586843 32.94082382 -21.06745148 30.48409653 C-21.09647522 27.04368555 -21.10048753 23.60408786 -21.09863281 20.16357422 C-21.12020447 18.63903374 -21.12020447 18.63903374 -21.14221191 17.08369446 C-21.10758385 11.15002306 -20.55505724 7.83466237 -16.64453125 3.29296875 C-11.97248053 -0.99665406 -5.96689949 -0.08478098 0 0 Z " fill="#60729A" transform="translate(201.64453125,120.70703125)"/>
</svg>
